<mxfile host="app.diagrams.net" modified="2021-11-09T01:21:17.421Z" agent="5.0 (X11; Linux x86_64) AppleWebKit/537.36 (KHTML, like Gecko) Chrome/91.0.4472.164 Safari/537.36" etag="a9ZfPTLGY-3C4dW-lFJB" version="15.6.6" type="github">
  <diagram id="AM0HCoSupyYwshGD3Rph" name="Page-1">
    <mxGraphModel dx="1382" dy="761" grid="1" gridSize="10" guides="1" tooltips="1" connect="1" arrows="1" fold="1" page="1" pageScale="1" pageWidth="827" pageHeight="1169" math="0" shadow="0">
      <root>
        <mxCell id="0" />
        <mxCell id="1" parent="0" />
        <mxCell id="6ycGAx9qy3iNxIzKx5UR-2" value="&lt;span style=&quot;text-align: left&quot;&gt;&lt;font style=&quot;font-size: 18px&quot;&gt;drm_ioctl&lt;/font&gt;&lt;/span&gt;" style="rounded=1;whiteSpace=wrap;html=1;fontColor=default;fillColor=default;strokeColor=default;" vertex="1" parent="1">
          <mxGeometry x="170" y="90" width="120" height="60" as="geometry" />
        </mxCell>
        <mxCell id="6ycGAx9qy3iNxIzKx5UR-3" value="radeon_encoder_set_active_device" style="rounded=1;whiteSpace=wrap;html=1;fontSize=18;fontColor=default;strokeColor=default;fillColor=default;" vertex="1" parent="1">
          <mxGeometry x="85" y="230" width="290" height="60" as="geometry" />
        </mxCell>
        <mxCell id="6ycGAx9qy3iNxIzKx5UR-5" value="&lt;div&gt;drm_crtc_helper_set_mode [drm_kms_helper]] [CRTC:39:crtc-0]&lt;/div&gt;&lt;div&gt;&lt;br&gt;&lt;/div&gt;" style="rounded=1;whiteSpace=wrap;html=1;fontSize=18;fontColor=default;strokeColor=default;fillColor=default;" vertex="1" parent="1">
          <mxGeometry x="95" y="360" width="260" height="90" as="geometry" />
        </mxCell>
        <mxCell id="6ycGAx9qy3iNxIzKx5UR-6" value="radeon_get_monitor_bpc" style="rounded=1;whiteSpace=wrap;html=1;fontSize=18;fontColor=default;strokeColor=default;fillColor=default;" vertex="1" parent="1">
          <mxGeometry x="100" y="510" width="260" height="60" as="geometry" />
        </mxCell>
        <mxCell id="6ycGAx9qy3iNxIzKx5UR-7" value="[drm:radeon_atom_encoder_dpms [radeon]] encoder dpms 30 to mode 3,&amp;nbsp;" style="rounded=1;whiteSpace=wrap;html=1;fontSize=18;fontColor=default;strokeColor=default;fillColor=default;" vertex="1" parent="1">
          <mxGeometry x="95" y="630" width="290" height="60" as="geometry" />
        </mxCell>
        <mxCell id="6ycGAx9qy3iNxIzKx5UR-8" value="&lt;div&gt;[drm:drm_crtc_vblank_off [drm]] crtc 0, vblank enabled 0, inmodeset 0&lt;/div&gt;&lt;div&gt;&lt;br&gt;&lt;/div&gt;" style="rounded=1;whiteSpace=wrap;html=1;fontSize=18;fontColor=default;strokeColor=default;fillColor=default;" vertex="1" parent="1">
          <mxGeometry x="75" y="800" width="310" height="60" as="geometry" />
        </mxCell>
        <mxCell id="6ycGAx9qy3iNxIzKx5UR-9" value="&lt;p style=&quot;font-family: monospace , &amp;quot;courier&amp;quot; ; font-size: 10pt&quot;&gt;&lt;span&gt;radeon_atom_mode_fixup ||&lt;/span&gt;&lt;/p&gt;&lt;p style=&quot;font-family: monospace , &amp;quot;courier&amp;quot; ; font-size: 10pt&quot;&gt;&lt;span style=&quot;&quot;&gt;radeon_legacy_mode_fixup&lt;/span&gt;&lt;/p&gt;" style="rounded=1;whiteSpace=wrap;html=1;fontSize=18;fontColor=default;strokeColor=default;fillColor=default;" vertex="1" parent="1">
          <mxGeometry x="490" y="130" width="250" height="60" as="geometry" />
        </mxCell>
        <mxCell id="6ycGAx9qy3iNxIzKx5UR-10" value="" style="shape=flexArrow;endArrow=classic;html=1;rounded=0;fontSize=18;fontColor=default;strokeColor=default;labelBackgroundColor=default;" edge="1" parent="1">
          <mxGeometry width="50" height="50" relative="1" as="geometry">
            <mxPoint x="300" y="110" as="sourcePoint" />
            <mxPoint x="460" y="150" as="targetPoint" />
          </mxGeometry>
        </mxCell>
      </root>
    </mxGraphModel>
  </diagram>
</mxfile>
